<?xml version="1.0" encoding="utf-8"?>
<!-- Generator: Adobe Illustrator 16.0.0, SVG Export Plug-In . SVG Version: 6.00 Build 0)  -->
<!DOCTYPE svg PUBLIC "-//W3C//DTD SVG 1.1//EN" "http://www.w3.org/Graphics/SVG/1.1/DTD/svg11.dtd">
<svg version="1.1" xmlns="http://www.w3.org/2000/svg" xmlns:xlink="http://www.w3.org/1999/xlink" x="0px" y="0px" width="200px"
	 height="200px" viewBox="0 0 200 200" style="enable-background:new 0 0 200 200;" xml:space="preserve">
<style type="text/css">
<![CDATA[
	.st0{fill:none;stroke:#FFFFFF;stroke-width:7;stroke-miterlimit:10;}
	.st1{fill:#FFFFFF;}
	.st2{fill:#36A9E1;}
	.st3{fill:#414141;}
]]>
</style>
<g id="Ebene_1">
	<g>
		<path class="st1" d="M62.7,30c0,0-18.3,0-18.3,18.3V151c0,0,0,18.3,18.3,18.3h60.8c0,0,18.3,0,18.3-18.3V48.3
			c0,0,0-18.3-18.3-18.3H62.7z"/>
		<path class="st1" d="M165.2,47.8l-17.9-4.4c0.2,1.4,0.3,2.7,0.3,3.9v3.3l15.9,3.9c13.8,3.4,11.1,16.5,10.8,17.9l-24.7,99.7
			c-1.8,7.4-6.6,11.2-14,11.2c-2.3,0-3.9-0.4-3.9-0.4l-27.3-6.8H75.6l54.4,13.5c0.2,0.1,2.4,0.6,5.5,0.6l0,0
			c10.6,0,18.2-6,20.8-16.5l24.7-99.7C182.9,66.8,181.9,51.9,165.2,47.8z"/>
		<path class="st1" d="M38.9,153.4v-2.6c-4.7-3.7-5.4-10-5.5-10.9L25.3,37.4c-1.1-14.2,12.1-15.8,13.6-15.9l60.6-4.8
			c0.6,0,1.2-0.1,1.7-0.1c7.3,0,10.8,4.1,12.6,7.8h7.4c-2.2-6.8-8-14.8-20-14.8c-0.7,0-1.5,0-2.3,0.1l-60.6,4.8
			C30.8,15.2,17,20.8,18.4,38l8.1,102.4c0.4,5.6,3.8,15.1,13.1,18.7C39.1,157,38.9,155.1,38.9,153.4z"/>
	</g>
</g>
<g id="Ebene_2">
</g>
</svg>
